<svg width="33" height="33" viewBox="0 0 33 33" fill="none" xmlns="http://www.w3.org/2000/svg">
<ellipse cx="16.0524" cy="16.464" rx="16.0524" ry="16.464" fill="#008000"/>
<path d="M21.4006 20.5528L20.635 12.5909C20.6186 12.4142 20.4573 12.2803 20.2686 12.2803H18.6937C18.6718 10.9521 17.4961 9.87891 16.0525 9.87891C14.6088 9.87891 13.4331 10.9521 13.4112 12.2803H11.8363C11.645 12.2803 11.4864 12.4142 11.47 12.5909L10.7044 20.5528C10.7044 20.5629 10.7017 20.573 10.7017 20.5831C10.7017 21.4896 11.6012 22.2269 12.7086 22.2269H19.3964C20.5037 22.2269 21.4033 21.4896 21.4033 20.5831C21.4033 20.573 21.4033 20.5629 21.4006 20.5528ZM16.0525 10.5607C17.0887 10.5607 17.9336 11.3283 17.9555 12.2803H14.1495C14.1713 11.3283 15.0162 10.5607 16.0525 10.5607ZM19.3964 21.5451H12.7086C12.0141 21.5451 11.4508 21.1209 11.4399 20.5982L12.1727 12.9647H13.4085V14C13.4085 14.1894 13.5726 14.3409 13.7776 14.3409C13.9827 14.3409 14.1467 14.1894 14.1467 14V12.9647H17.9555V14C17.9555 14.1894 18.1195 14.3409 18.3246 14.3409C18.5297 14.3409 18.6937 14.1894 18.6937 14V12.9647H19.9296L20.6651 20.5982C20.6541 21.1209 20.0881 21.5451 19.3964 21.5451Z" fill="white"/>
</svg>
