<svg width="33" height="33" viewBox="0 0 33 33" fill="none" xmlns="http://www.w3.org/2000/svg">
<ellipse cx="16.1208" cy="16.5148" rx="16.0524" ry="16.464" fill="#FF0000"/>
<path d="M21.4689 20.6035L20.7033 12.6417C20.6869 12.4649 20.5256 12.3311 20.337 12.3311H18.7621C18.7402 11.0029 17.5645 9.92969 16.1208 9.92969C14.6772 9.92969 13.5015 11.0029 13.4796 12.3311H11.9047C11.7133 12.3311 11.5547 12.4649 11.5383 12.6417L10.7728 20.6035C10.7728 20.6136 10.77 20.6237 10.77 20.6338C10.77 21.5404 11.6696 22.2777 12.7769 22.2777H19.4647C20.5721 22.2777 21.4716 21.5404 21.4716 20.6338C21.4716 20.6237 21.4716 20.6136 21.4689 20.6035ZM16.1208 10.6115C17.1571 10.6115 18.002 11.3791 18.0238 12.3311H14.2178C14.2397 11.3791 15.0846 10.6115 16.1208 10.6115ZM19.4647 21.5959H12.7769C12.0824 21.5959 11.5192 21.1717 11.5083 20.649L12.241 13.0154H13.4769V14.0507C13.4769 14.2401 13.6409 14.3916 13.846 14.3916C14.051 14.3916 14.2151 14.2401 14.2151 14.0507V13.0154H18.0238V14.0507C18.0238 14.2401 18.1879 14.3916 18.3929 14.3916C18.598 14.3916 18.7621 14.2401 18.7621 14.0507V13.0154H19.9979L20.7334 20.649C20.7225 21.1717 20.1565 21.5959 19.4647 21.5959Z" fill="white"/>
</svg>
